HIERARCHY
ROOT Hips
{
	OFFSET -14.64140 90.27770 -84.91600
	CHANNELS 6 Xposition Yposition Zposition Zrotation Xrotation Yrotation
	JOINT Spine
	{
		OFFSET 0.00000 13.20850 -1.60436
		CHANNELS 3 Zrotation Xrotation Yrotation
		JOINT Spine1
		{
			OFFSET 0.00000 8.61716 0.00000
			CHANNELS 3 Zrotation Xrotation Yrotation
			JOINT Spine2
			{
				OFFSET 0.00000 8.61717 0.00000
				CHANNELS 3 Zrotation Xrotation Yrotation
				JOINT Spine3
				{
					OFFSET 0.00000 8.61717 0.00000
					CHANNELS 3 Zrotation Xrotation Yrotation
					JOINT Neck
					{
						OFFSET 0.00000 11.07920 1.10792
						CHANNELS 3 Zrotation Xrotation Yrotation
						JOINT Neck1
						{
							OFFSET 0.00000 7.08032 0.00000
							CHANNELS 3 Zrotation Xrotation Yrotation
							JOINT Head
							{
								OFFSET 0.00000 7.08031 0.00000
								CHANNELS 3 Zrotation Xrotation Yrotation
								End site
								{
									OFFSET 0.00000 0.00000 0.00000
								}
							}
						}
					}
					JOINT RightShoulder
					{
						OFFSET -0.01000 7.91373 5.19711
						CHANNELS 3 Zrotation Xrotation Yrotation
						JOINT RightArm
						{
							OFFSET -18.41580 0.00000 0.00000
							CHANNELS 3 Zrotation Xrotation Yrotation
							JOINT RightForeArm
							{
								OFFSET -29.11090 0.00000 0.00000
								CHANNELS 3 Zrotation Xrotation Yrotation
								JOINT RightHand
								{
									OFFSET -24.65040 0.00000 0.00000
									CHANNELS 3 Zrotation Xrotation Yrotation
									JOINT RightHandThumb1
									{
										OFFSET -5.35114 -0.85590 3.97906
										CHANNELS 3 Zrotation Xrotation Yrotation
										JOINT RightHandThumb2
										{
											OFFSET -4.52789 0.00000 0.00000
											CHANNELS 3 Zrotation Xrotation Yrotation
											JOINT RightHandThumb3
											{
												OFFSET -2.46976 0.00000 0.00000
												CHANNELS 3 Zrotation Xrotation Yrotation
												End site
												{
													OFFSET 0.00000 0.00000 0.00000
												}
											}
										}
									}
									JOINT RightHandIndex1
									{
										OFFSET -14.26970 0.00000 2.88139
										CHANNELS 3 Zrotation Xrotation Yrotation
										JOINT RightHandIndex2
										{
											OFFSET -5.48836 0.00000 0.00000
											CHANNELS 3 Zrotation Xrotation Yrotation
											JOINT RightHandIndex3
											{
												OFFSET -3.01859 0.00000 0.00000
												CHANNELS 3 Zrotation Xrotation Yrotation
												End site
												{
													OFFSET 0.00000 0.00000 0.00000
												}
											}
										}
									}
									JOINT RightHandMiddle1
									{
										OFFSET -14.26970 0.00000 -0.09147
										CHANNELS 3 Zrotation Xrotation Yrotation
										JOINT RightHandMiddle2
										{
											OFFSET -6.17441 0.00000 0.00000
											CHANNELS 3 Zrotation Xrotation Yrotation
											JOINT RightHandMiddle3
											{
												OFFSET -3.56743 0.00000 0.00000
												CHANNELS 3 Zrotation Xrotation Yrotation
												End site
												{
													OFFSET 0.00000 0.00000 0.00000
												}
											}
										}
									}
									JOINT RightHandRing1
									{
										OFFSET -12.69180 0.00000 -3.06433
										CHANNELS 3 Zrotation Xrotation Yrotation
										JOINT RightHandRing2
										{
											OFFSET -5.62556 0.00000 0.00000
											CHANNELS 3 Zrotation Xrotation Yrotation
											JOINT RightHandRing3
											{
												OFFSET -3.56744 0.00000 0.00000
												CHANNELS 3 Zrotation Xrotation Yrotation
												End site
												{
													OFFSET 0.00000 0.00000 0.00000
												}
											}
										}
									}
									JOINT RightHandPinky1
									{
										OFFSET -11.11390 0.00000 -6.03719
										CHANNELS 3 Zrotation Xrotation Yrotation
										JOINT RightHandPinky2
										{
											OFFSET -4.52789 0.00000 0.00000
											CHANNELS 3 Zrotation Xrotation Yrotation
											JOINT RightHandPinky3
											{
												OFFSET -2.46976 0.00000 0.00000
												CHANNELS 3 Zrotation Xrotation Yrotation
												End site
												{
													OFFSET 0.00000 0.00000 0.00000
												}
											}
										}
									}
								}
							}
						}
					}
					JOINT LeftShoulder
					{
						OFFSET 0.01000 7.91373 5.19711
						CHANNELS 3 Zrotation Xrotation Yrotation
						JOINT LeftArm
						{
							OFFSET 18.41580 0.00000 0.00000
							CHANNELS 3 Zrotation Xrotation Yrotation
							JOINT LeftForeArm
							{
								OFFSET 29.11090 0.00000 0.00000
								CHANNELS 3 Zrotation Xrotation Yrotation
								JOINT LeftHand
								{
									OFFSET 24.65040 0.00000 0.00000
									CHANNELS 3 Zrotation Xrotation Yrotation
									JOINT LeftHandThumb1
									{
										OFFSET 5.35114 -0.85590 3.97906
										CHANNELS 3 Zrotation Xrotation Yrotation
										JOINT LeftHandThumb2
										{
											OFFSET 4.52789 0.00000 0.00000
											CHANNELS 3 Zrotation Xrotation Yrotation
											JOINT LeftHandThumb3
											{
												OFFSET 2.46977 0.00000 0.00000
												CHANNELS 3 Zrotation Xrotation Yrotation
												End site
												{
													OFFSET 0.00000 0.00000 0.00000
												}
											}
										}
									}
									JOINT LeftHandIndex1
									{
										OFFSET 14.26970 0.00000 2.88139
										CHANNELS 3 Zrotation Xrotation Yrotation
										JOINT LeftHandIndex2
										{
											OFFSET 5.48836 0.00000 0.00000
											CHANNELS 3 Zrotation Xrotation Yrotation
											JOINT LeftHandIndex3
											{
												OFFSET 3.01859 0.00000 0.00000
												CHANNELS 3 Zrotation Xrotation Yrotation
												End site
												{
													OFFSET 0.00000 0.00000 0.00000
												}
											}
										}
									}
									JOINT LeftHandMiddle1
									{
										OFFSET 14.26970 0.00000 -0.09147
										CHANNELS 3 Zrotation Xrotation Yrotation
										JOINT LeftHandMiddle2
										{
											OFFSET 6.17440 0.00000 0.00000
											CHANNELS 3 Zrotation Xrotation Yrotation
											JOINT LeftHandMiddle3
											{
												OFFSET 3.56744 0.00000 0.00000
												CHANNELS 3 Zrotation Xrotation Yrotation
												End site
												{
													OFFSET 0.00000 0.00000 0.00000
												}
											}
										}
									}
									JOINT LeftHandRing1
									{
										OFFSET 12.69180 0.00000 -3.06433
										CHANNELS 3 Zrotation Xrotation Yrotation
										JOINT LeftHandRing2
										{
											OFFSET 5.62556 0.00000 0.00000
											CHANNELS 3 Zrotation Xrotation Yrotation
											JOINT LeftHandRing3
											{
												OFFSET 3.56744 0.00000 0.00000
												CHANNELS 3 Zrotation Xrotation Yrotation
												End site
												{
													OFFSET 0.00000 0.00000 0.00000
												}
											}
										}
									}
									JOINT LeftHandPinky1
									{
										OFFSET 11.11390 0.00000 -6.03719
										CHANNELS 3 Zrotation Xrotation Yrotation
										JOINT LeftHandPinky2
										{
											OFFSET 4.52789 0.00000 0.00000
											CHANNELS 3 Zrotation Xrotation Yrotation
											JOINT LeftHandPinky3
											{
												OFFSET 2.46976 0.00000 0.00000
												CHANNELS 3 Zrotation Xrotation Yrotation
												End site
												{
													OFFSET 0.00000 0.00000 0.00000
												}
											}
										}
									}
								}
							}
						}
					}
					JOINT pCube4
					{
						OFFSET 0.00000 10.91090 1.10792
						CHANNELS 3 Zrotation Xrotation Yrotation
						End site
						{
							OFFSET 0.00000 0.00000 0.00000
						}
					}
				}
			}
		}
	}
	JOINT RightUpLeg
	{
		OFFSET -9.98441 0.00000 0.00000
		CHANNELS 3 Zrotation Xrotation Yrotation
		JOINT RightLeg
		{
			OFFSET 0.00000 -42.11790 0.00000
			CHANNELS 3 Zrotation Xrotation Yrotation
			JOINT RightFoot
			{
				OFFSET 0.00000 -45.00020 -0.00001
				CHANNELS 3 Zrotation Xrotation Yrotation
				JOINT RightForeFoot
				{
					OFFSET 0.00000 -3.74820 0.00000
					CHANNELS 3 Zrotation Xrotation Yrotation
					JOINT RightToeBase
					{
						OFFSET 0.00000 0.06325 14.43120
						CHANNELS 3 Zrotation Xrotation Yrotation
						End site
						{
							OFFSET 0.00000 0.00000 0.00000
						}
					}
				}
			}
		}
	}
	JOINT LeftUpLeg
	{
		OFFSET 9.98441 0.00000 0.00000
		CHANNELS 3 Zrotation Xrotation Yrotation
		JOINT LeftLeg
		{
			OFFSET 0.00000 -42.11800 0.00000
			CHANNELS 3 Zrotation Xrotation Yrotation
			JOINT LeftFoot
			{
				OFFSET 0.00000 -45.00070 0.00000
				CHANNELS 3 Zrotation Xrotation Yrotation
				JOINT LeftForeFoot
				{
					OFFSET 0.00000 -3.74824 0.00000
					CHANNELS 3 Zrotation Xrotation Yrotation
					JOINT LeftToeBase
					{
						OFFSET 0.00000 0.06325 14.43110
						CHANNELS 3 Zrotation Xrotation Yrotation
						End site
						{
							OFFSET 0.00000 0.00000 0.00000
						}
					}
				}
			}
		}
	}
}
MOTION
Frames: 4
Frame Time: 0.050000
0.031841506581151154 0.011412404293176227 0.003959878823628506 -0.040513556860945835 0.020411166606283268 0.03082018421546221 2.8498887946970193 3.7407381424288846 -1.791094590478768 -0.7314911179071579 3.5273665684195965 0.44517912238138 -0.7540849373680445 -1.0879211661873076 1.6832021269450423 -0.8565555261515814 -0.622342038376062 -0.2224124324258388 0.3314588859520182 11.927973003576687 -1.9617887977897963 0.14711068390489435 -0.9233470527916506 -6.099610678014807 0.973647127111334 -17.102024111885534 -0.5138717349383345 -9.589903393822388 3.554394352760862 -15.685853065373411 76.2975447642698 -9.090498004900184 23.437803958564658 22.158887496860313 4.824154608133061 80.12322225508535 17.165041745219412 -0.43913870234770114 -5.995020775429787 4.534436031485099 -0.13937135980250798 -1.624807426159586 -0.04081540794330115 0.007390925035854154 -56.21728021251567 -0.010628677113371503 0.01309592657070933 -56.240037077922985 -38.747818610741675 -0.01847407111682034 -0.032236615293841656 -0.009943890897759874 -0.022556680749551267 0.04134448919148538 0.04924935438571905 -0.02719918660773564 0.042734716674512514 -36.736010430929106 -0.03652087032054961 -0.030208205024504386 0.04207963308162679 0.0023127785781510714 0.0052413500601875065 0.003343076539092975 0.0036603790102141104 -0.02058199953354964 -19.745235328513616 0.032168024873417515 0.03891120748098378 0.03534785125403226 0.04600337001038036 -0.012369743998934975 -0.008939423735894422 -0.01725358507525681 0.00789844773598053 24.039884707688806 -0.012247119056024183 0.0021333688523035832 28.830141693928347 -0.005926259684670261 0.0078097171444532236 28.877302134680768 0.018021298952707057 -0.00016399093821442876 7.733420796781318 1.9991899741713433 13.799334272153567 -74.9587835290682 7.2616199040635925 -14.074941262357788 -11.142620087691434 12.627747703332501 -54.48386878304318 -21.28008521661923 2.281816442969166 -0.6928035072345725 -0.431924519922162 0.05260250290508143 -8.109150018879285 0.03181287037810495 -0.028692618283957076 44.596251998945 -0.0016837268090335706 -0.03363533212073705 44.547525022584146 12.509632002054552 -0.031633262329605984 0.028867196375853034 0.03120807021674941 -0.018192353148918764 -0.002124072748748271 -0.046115860795582164 0.04310291112508269 -0.04841104726036265 11.108697983200473 0.0029838163359183073 -0.038522714142569775 -0.0022004608083824066 -0.027000837294585602 0.0034676119992048966 0.03790121544266756 -0.013510281289987408 -0.0416976970116101 4.814218784759333 -0.01649421559009544 -0.03524175738625751 0.009914609903143915 -0.005987799938877389 -0.0265196117119183 0.04434203703075085 -0.003851675360286053 0.01044871746272805 -5.586915608123281 -0.005163792983883783 0.010982399590898362 -6.704786630995791 -0.04792238836798665 0.006526448903536596 -6.723544276087091 0.03259424972498561 0.017481347185287533 0.012016844912398066 0.0492358959927846 0.03381653895048749 8.014237417908308 3.455425919885566 -19.255910982406583 -0.00273019599308917 10.399265442693212 0.014993618948934195 -5.578047101372887 -15.695429997998486 3.171099926096862 0.009554967846649002 0.01084376948433214 -0.04708630205670014 0.0009648686688651151 4.70725350686048 0.0405965344558787 12.453677094786372 -8.230804974765531 6.872103577187225 0.028426716480775778 46.416240152567475 0.0157197663316469 -4.364592108627668 -14.782158757295283 -3.8540146914884796 0.030450672407763165 0.02792635569788433 0.01436435026060665 0.04631598253820739 -10.765081046674652 -0.02347365733642187 
-0.041448821944518065 -0.0032072992822927437 -0.03779835981195426 -0.019427039994413826 0.0019399820668287385 0.02829169090457477 2.553388103663061 3.669859931170692 -1.7689979577216675 -0.7336257822587006 3.602101123105176 0.42873996574727724 -0.781935585286054 -1.1718997083454419 1.8213454459203886 -0.8966269191786874 -0.662297065851121 -0.19919216671715095 0.4252291891416357 12.077548123368922 -2.2498636919954054 0.1288795863357899 -0.8306895058980469 -6.989048144913855 1.0266540598487408 -16.931473787897094 -0.6126176852657141 -9.746032819572498 3.514612929937214 -15.55103759420847 75.39919549098869 -10.592259545065865 25.850125661999304 22.162235816658953 4.920683825569632 80.99842852329058 16.66228093460367 -0.46808714028293374 -5.489104209266096 4.560932216644356 -0.15962568666029125 -1.6218555685524347 0.03761870538969432 -0.0005636235252978659 -56.24851115574484 0.010971803691435801 0.003701167931074074 -56.22329164875427 -38.7838843941795 0.02837306721551636 -0.04098328282176249 0.026774986817529944 0.008147460017203826 0.026825289643499686 -0.03894072167568573 -0.0023332288999594612 0.019913163725162834 -36.695602128404666 0.04829318441532282 -0.04682211380819401 -0.0029917316746301136 -0.028856435982704175 0.018653487534736862 -0.006221895371090775 -0.013906009600402105 -0.04597578226169132 -19.71353088836405 0.044518028182726606 -0.014020513758461698 0.009108607353310275 -0.006878704956518931 -0.001331149009042491 0.012543842683126466 0.002231368940693616 0.032516244615790654 24.036442985515098 -0.0005827994220481528 -0.02749250832600366 28.869009496416098 -0.020879239337533172 0.009180484151236169 28.872541049296117 0.024685514818434597 0.012348238710709744 7.437017861046834 1.9217566453576507 13.786241687812657 -75.14958633372021 5.9567048255629755 -14.205503320039002 -8.768172108319565 14.537246087956586 -52.60382349204615 -20.806978285467448 4.634497445251091 -2.0694692827380625 -0.5091717510160263 0.09885608886398778 -8.160207954986696 -0.0055876666940246214 0.025895747967535958 44.56438358657162 -0.03334776742118665 -0.0032152344712713513 44.607442423259414 12.464547362509235 0.02043529010947028 -0.024792480966013917 0.029831545921506504 0.004360577505730489 -0.014500917318137024 -0.0016837036371563786 0.003742182869560517 -0.005801434513253155 11.128469379739679 -0.03948642683536725 0.03157630139385406 0.03086966528033864 -0.006585743346574958 -0.028386807610687306 0.01829322570035926 0.03672093102967044 0.01472964003723047 4.8197070313554855 0.035685338088842486 0.02525180467953114 0.03136495015357679 0.01188697652514805 -0.022214981871534815 0.04309976128139845 -0.03138021491450846 -0.03179673772203111 -5.592791889395799 -0.009454702811004476 -0.043767092184791904 -6.696132869868327 0.019684610257950926 -0.01586312306098846 -6.707041828211741 -0.013064845629478912 -0.005262487764491184 0.021909615140462576 0.0077620848829916085 -0.02141676438012608 8.062697619711802 3.4882097378492567 -19.212254663446505 -0.006313797046578525 10.373711922375636 0.0007289487999224773 -5.653456562685948 -15.695686660563519 3.195885569741718 -0.028396342156597577 0.03711249170824505 -0.009940991448462281 0.04044139610407075 4.696285996397939 0.009473312352586744 12.42309033203459 -8.286431367121516 6.86515214935366 -0.02769188748631802 46.364638092861 -0.036370537494610375 -4.336777966932326 -14.75493230821553 -3.870644495505841 0.002155137218004358 -0.015011444361843523 0.017319501053428436 -0.046246175942724 -10.761901490542371 0.04617732398383482 
0.004330294692293144 0.0007097523450345171 0.00315873596720598 -0.02513554526818151 0.030551982290925796 -0.03987437833783842 2.2852760164919568 3.6194353772773016 -1.660076975520616 -0.7297624025945015 3.6124868054362755 0.3851561289053629 -0.8881265047878781 -1.1152488993844827 2.002185870636246 -0.9279303687365899 -0.6539499885128272 -0.17764837293279806 0.5627602697001156 12.256066614540387 -2.40320577765919 0.14587660920068032 -0.7903027408680623 -7.442555707200786 1.0300270120408512 -16.789807616977267 -0.6424673919266064 -9.887005485860485 3.6014396405702764 -15.504137563467006 74.24345445587264 -12.3757675856033 28.368273744792177 21.59781050191951 4.85809590867049 81.08042434517006 16.448481311977467 -0.45813825763625843 -5.0784597274252 4.503160331954374 -0.14774869189981032 -1.599491200336348 -0.03991526519584885 0.04640935110627838 -56.21654641488251 0.027781961846914074 -0.01710223748838105 -56.26932557307332 -38.76468787086005 0.008650400882337874 -0.0424400719056151 0.01853216341955636 0.030398356172464527 0.013840811786729974 0.018349329230322464 -0.04337743768098553 0.01269246076655818 -36.707540131363274 -0.046814567907487156 0.0044518636724068025 -0.031123027022090768 -0.018648221544330063 -0.038405321620724076 -0.019681125988905503 -0.009504906228298525 -0.022211763607336944 -19.722301914775 0.0002703516712213545 -0.021993679409003843 0.02447820267263084 0.026348810669507096 -0.03449797449568697 0.030428502770443278 0.03616582813085236 -0.021210245993980678 24.086139365438946 0.027977088218231447 0.023786580163372133 28.861061699103487 0.04977326504924796 -0.026743136748670012 28.836994538615812 -0.0479377572239182 -0.0027634692695388203 7.133709719996587 1.9215335108241582 13.789147610202784 -75.24610344058021 4.345302252776682 -14.03133716166384 -5.30731230459918 16.050299469934675 -49.336786901010335 -20.59034868065372 6.919441870073031 -3.436886193327296 -0.49953156287346734 0.05284217670272085 -8.139490462983812 0.002305734726654283 0.04043360834410435 44.533240380120226 0.010602542338719533 0.038131129768127006 44.57310306149296 12.44320380542625 0.007160934086347248 0.019151311319395816 0.012470135328932808 0.03164075389595984 0.021089770205419262 -0.021067490134665974 0.0079615385146275 0.0020466762557146915 11.060773160118902 0.012693344739368702 -0.029009684157180703 -0.011318186902604095 0.0010618818195985995 -0.01473016716022748 -0.007585336970547341 0.03131678531116129 0.009610369003276767 4.805245139655426 0.02491282669720375 -0.014325101260806201 -0.049599962186945575 -0.045786979658942836 0.013351914630443329 -0.046222762123876764 -0.0027303351150247215 0.044410448494478144 -5.596512150681444 0.024967361393996426 0.041526429955220406 -6.713600724997994 0.011964596341589544 -0.01636027609639429 -6.744905087371845 -0.009253967041271639 -0.03631346108684008 -0.03506747380256154 0.037242939749168376 2.8652841370269143e-05 8.053621595119303 3.523263635688228 -19.1973718306211 -0.0032268022555463544 10.397599422184099 0.0014012972901382616 -5.639391856856434 -15.614918288670376 3.1473658270336764 -0.012357256118542447 -0.006912242032555797 -0.03261654874655443 -0.008220017591257086 4.664007747021597 -0.04532767290296096 12.43899278892832 -8.245677852054834 6.913041398732301 0.0011480326706335448 46.37489383699401 -0.009698616024204739 -4.316060287852688 -14.787549666068495 -3.788754138930338 0.04082110210671751 0.03073540273380313 0.02694933142982852 0.0074278586186228394 -10.752524324767496 0.030653631343658533 
0.048606317402245684 -0.04834917434625019 0.012684763326216994 -0.015894918985006036 0.005512220664917343 -0.04336824552471091 2.0385922304253956 3.5627497513162307 -1.5920002426657602 -0.7132189022928351 3.5844173255851683 0.41698854701802796 -0.8205861647979028 -1.1606760157978144 2.124556778032829 -0.9361673705380799 -0.7209263422680616 -0.23463764064659243 0.5976388921834418 12.290927820907157 -2.3391600234655816 0.11601213072475529 -0.7044723145277302 -7.498583091011304 1.071512775309256 -16.631791748295758 -0.5793699840375728 -9.74398580335284 3.550332250151984 -15.388613810086818 73.26922450156336 -13.487994758621122 29.53800953398733 20.442035333053557 4.865820400685702 81.9024250088291 16.602526700934828 -0.3938230149253149 -4.895207847478813 4.500114338566733 -0.09304431499751856 -1.5599380213311704 -0.018850298003182907 -0.0024475848798330376 -56.277641603016704 -0.01389860773763513 -0.042672481842718116 -56.212201311569636 -38.748200801338356 0.000835974733180397 -0.010993253991097747 -0.016163505972550684 -0.006760416375282392 0.018339913510510935 -0.011427577389734437 0.007160738929746437 -0.016868471242722505 -36.70604995283456 0.01198685355148154 0.021659508468702727 0.039215131621455866 -0.0060038953962218405 0.02369876995595895 -0.0245878173726791 -0.04397994919286337 0.002416010415369726 -19.767933819661405 0.04489012360546762 -0.0027240936586917 0.016998141502797225 0.03694447542679746 0.031567095353082365 0.04352711164874807 0.0027366332081060667 -0.03344406247224018 24.046299252075936 -0.04234737727886104 0.0011952212016819832 28.894669366211907 -0.020172034081673937 0.005011512549553517 28.818025554259062 0.022825790250819895 0.03180606858221382 6.763590302455527 1.7945809840254032 13.808367698278685 -75.39728928488323 3.498493080456894 -13.42257383433378 -1.7909568389692552 17.118500967799964 -46.427976932617035 -20.568907494665837 8.807997940266413 -4.555806335034556 -0.4556152789169483 0.05868530071356871 -8.106567114774172 -0.021237867365882134 0.012425845341662073 44.59245877598339 0.007952211851749413 0.0412632726687359 44.57884577285828 12.471986151703634 -0.014409047400542602 -0.015563701313649387 -0.0008053717548876786 0.013645713139649482 -0.02911280779339589 0.023435287507678898 -0.02610802862604411 0.02975841276155284 11.064446584845657 0.018363200177605222 -0.003755831763686459 -0.008562300749997892 -0.0046202622340655985 -0.04365901658164308 -0.046458767123187326 0.011899264118606867 0.025335323927303713 4.763597068510322 0.020862026279187845 -0.00041028938510764097 -0.03758616553841464 -0.01359843967216996 -0.04824267111914219 -0.020483076481122166 0.018677066714686136 -0.029899089918428046 -5.56463647687605 0.00719258970237197 0.021716361821197218 -6.695490692827369 0.035473130356205224 -0.01986514279426468 -6.749989105146575 0.04585577226038768 0.023346191450984474 2.2635702732432215e-05 -0.03304432584033991 0.004245127529783878 8.035977925782461 3.4488535648466017 -19.187943627838912 -0.02199752041761632 10.426576670960282 0.008423919461077758 -5.622379256926574 -15.675375464912454 3.1541439953593136 0.01928575081041653 -0.011650120951396071 -0.0344817067777969 0.003769002960006143 4.689301152873569 0.033209774494044074 12.446137376007574 -8.282696696462473 6.853433669007427 0.019953013008068187 46.42501807546586 0.015788289471512857 -4.3041650469431385 -14.751431598468717 -3.834245598855651 0.00028994310094951077 -0.01436973516038939 0.0458690343474819 -0.017780723678953322 -10.756784923697708 -0.014385610876860742 
